<?xml version="1.0" encoding="utf-8"?>
<!-- Generator: Adobe Illustrator 24.2.1, SVG Export Plug-In . SVG Version: 6.00 Build 0)  -->
<svg version="1.1" id="Capa_1" xmlns="http://www.w3.org/2000/svg" xmlns:xlink="http://www.w3.org/1999/xlink" x="0px" y="0px"
	 viewBox="0 0 595.28 384.2" style="enable-background:new 0 0 595.28 384.2;" xml:space="preserve">
<style type="text/css">
	.st0{fill:#E52621;}
</style>
<g>
	<path class="st0" d="M405.56,322.3c0.22-0.15,0.43-0.3,0.64-0.45c-2.27,1.4-4.02,2.52-4.65,2.92
		C402.91,323.99,404.26,323.18,405.56,322.3z"/>
	<ellipse class="st0" cx="334.92" cy="229.4" rx="10.22" ry="24.98"/>
	<path class="st0" d="M536.75,214.45l-0.12-2.26l-0.2-2.27l-0.1-1.13l-0.15-1.12l-0.3-2.23c-0.11-0.74-0.19-1.49-0.32-2.23l-0.4-2.2
		l-0.4-2.2c-0.06-0.37-0.14-0.73-0.23-1.1l-0.25-1.09c-1.28-5.83-3-11.58-5.18-17.13c-4.35-11.11-10.31-21.5-17.41-30.9
		c-3.56-4.7-7.36-9.17-11.38-13.44l-3.05-3.17c-1.04-1.03-2.11-2.04-3.16-3.06c-0.53-0.51-1.05-1.02-1.59-1.52l-1.64-1.46
		l-1.64-1.46c-0.55-0.49-1.09-0.98-1.66-1.44l-3.38-2.8c-0.28-0.23-0.56-0.47-0.85-0.69l-0.87-0.67l-1.74-1.34l-1.74-1.34
		c-0.58-0.45-1.19-0.86-1.78-1.28l-3.58-2.54c-2.45-1.6-4.85-3.26-7.37-4.75l-1.87-1.14l-0.94-0.57l-0.95-0.54l-3.82-2.15
		c-0.63-0.37-1.29-0.68-1.94-1.02l-1.94-1.01l-1.94-1.01l-1.98-0.94c-1.32-0.62-2.63-1.26-3.96-1.86l-4.02-1.74l-1-0.43
		c-0.34-0.14-0.68-0.27-1.02-0.4l-2.04-0.8c-1.36-0.53-2.71-1.08-4.09-1.55l-4.13-1.45c-1.39-0.45-2.78-0.88-4.17-1.31
		c-0.7-0.21-1.39-0.44-2.09-0.64l-2.13-0.58l-2.13-0.58c-0.71-0.19-1.42-0.4-2.14-0.55c-1.43-0.31-2.87-0.65-4.28-0.93
		c-1.41-0.29-2.83-0.58-4.24-0.85c-5.66-1.08-11.34-2-17.01-2.79c-3.02-0.42-6.04-0.81-9.06-1.18c-2.87-4.28-6.29-8.39-10.4-12.13
		c-15.08-13.74-35.72-19.32-61.34-16.6c-3.76,0.4-7.33,0.66-10.75,0.8l-0.1-0.19l-0.53-1c-0.31-0.6-0.7-1.13-1.13-1.62
		c-0.87-0.96-1.88-1.7-2.98-2.2c-1.1-0.51-2.27-0.81-3.59-0.85l-0.5,0c-0.17,0-0.35,0.02-0.52,0.04l-0.24,0.03l-0.13,0.02
		l-0.27,0.04l-1.07,0.15l-2.15,0.32c-1.44,0.22-2.88,0.47-4.32,0.74c-2.89,0.55-5.78,1.22-8.72,2.17c-0.5,0.17-1.01,0.35-1.51,0.54
		c-17.61-3.4-28.5-10.56-36.72-15.97c-5.51-3.63-10.27-6.76-15.48-7.66c-6.62-1.14-12.49,1.4-17.96,7.78
		c-8.9,10.38-15.73,27.49-18.89,47.2c-1.59,0.06-3.17,0.1-4.76,0.12c-3.2,0.06-6.39-0.01-9.55-0.18
		c-6.32-0.35-12.53-1.16-18.52-2.53c-6-1.37-11.74-3.34-17.23-5.89c-2.75-1.27-5.42-2.71-8.07-4.28c-2.66-1.58-5.27-3.3-8.02-5.18
		c-1.38-0.94-2.81-1.91-4.35-2.92c-1.54-1.01-3.21-2.06-5.22-3.12c-0.48-0.26-1.04-0.53-1.58-0.79c-0.26-0.13-0.58-0.26-0.87-0.39
		c-0.3-0.13-0.58-0.25-0.91-0.38l-0.97-0.36c-0.34-0.12-0.7-0.23-1.05-0.34c-0.18-0.05-0.35-0.11-0.54-0.16l-0.58-0.14
		c-0.39-0.09-0.75-0.19-1.18-0.26c-0.42-0.07-0.84-0.14-1.26-0.2c-0.45-0.05-0.89-0.09-1.34-0.12l-0.34-0.02l-0.35-0.01l-0.7,0
		c-0.23,0-0.47,0-0.7,0.01l-0.72,0.05c-0.95,0.07-1.9,0.24-2.84,0.44c-0.46,0.12-0.91,0.24-1.36,0.38
		c-0.23,0.07-0.45,0.14-0.66,0.22l-0.64,0.24l-0.63,0.25c-0.2,0.09-0.39,0.18-0.59,0.27c-0.39,0.19-0.78,0.38-1.15,0.58
		c-0.7,0.4-1.43,0.82-2.02,1.25c-0.31,0.21-0.63,0.43-0.92,0.65l-0.83,0.66l-0.41,0.33l-0.37,0.33l-0.73,0.66
		c-0.13,0.11-0.24,0.22-0.35,0.33l-0.33,0.33l-0.65,0.66c-0.41,0.43-0.79,0.86-1.19,1.3c-0.69,0.82-1.35,1.63-2.01,2.46
		c-2.56,3.31-4.64,6.74-6.44,10.2c-3.6,6.94-6.04,14.05-7.92,21.2c-0.91,3.58-1.66,7.17-2.27,10.78c-0.6,3.61-1.03,7.23-1.34,10.87
		c-0.31,3.63-0.43,7.29-0.42,10.96c0.02,0.92,0.01,1.83,0.05,2.75l0.11,2.76c0.06,0.92,0.12,1.85,0.19,2.77
		c0.06,0.92,0.18,1.85,0.27,2.78c0.41,3.71,1.03,7.44,2.01,11.21l0.37,1.41c0.14,0.47,0.29,0.95,0.44,1.42
		c0.15,0.47,0.3,0.95,0.45,1.42l0.54,1.43c0.34,0.92,0.74,1.86,1.18,2.79c-0.16,0.43-0.32,0.86-0.48,1.28
		c-0.57,1.57-1.1,3.15-1.59,4.73c-0.98,3.17-1.81,6.38-2.49,9.65c-1.34,6.52-2.06,13.26-1.82,20.14c0.13,3.44,0.49,6.9,1.18,10.35
		c0.16,0.86,0.37,1.72,0.56,2.58c0.22,0.86,0.43,1.72,0.69,2.57c0.5,1.71,1.07,3.4,1.75,5.06c0.67,1.66,1.42,3.3,2.27,4.89
		c0.41,0.8,0.87,1.58,1.32,2.36c0.48,0.77,0.94,1.54,1.45,2.29c1.4,2.11,2.98,4.1,4.67,5.96c0,0.04,0,0.08,0.01,0.11
		c0.05,1.11,0.14,2.19,0.23,3.27c0.2,2.16,0.47,4.3,0.81,6.42c0.34,2.12,0.75,4.23,1.23,6.33c0.49,2.09,1.02,4.18,1.66,6.24
		c0.15,0.52,0.31,1.03,0.48,1.54c0.17,0.51,0.33,1.03,0.5,1.54c0.36,1.02,0.71,2.04,1.1,3.04c0.75,2.02,1.63,4.01,2.53,5.98
		c1.86,3.92,4.01,7.72,6.48,11.32c4.94,7.2,11.23,13.54,18.39,18.52c3.58,2.49,7.36,4.65,11.27,6.47c3.91,1.83,7.93,3.34,12.02,4.52
		c1.02,0.33,2.05,0.57,3.07,0.84l1.54,0.4c0.51,0.13,1.03,0.23,1.55,0.35c1.03,0.22,2.06,0.46,3.1,0.65l3.11,0.54l0.78,0.13
		l0.78,0.1l1.56,0.21c1.04,0.14,2.08,0.29,3.11,0.37l3.12,0.29c1.04,0.08,2.08,0.13,3.11,0.19c8.3,0.47,16.54,0.1,24.67-0.74
		c7.11-0.74,14.14-1.88,21.08-3.3c0.25,0.31,0.51,0.62,0.77,0.92c2.9,3.43,6.02,6.66,9.33,9.67c3.32,3.01,6.82,5.8,10.47,8.37
		c7.3,5.15,15.14,9.42,23.27,12.92c4.06,1.75,8.2,3.32,12.38,4.7c4.18,1.38,8.41,2.59,12.67,3.65c1.07,0.26,2.13,0.54,3.2,0.77
		l3.21,0.72c2.14,0.44,4.29,0.89,6.44,1.26c4.3,0.78,8.62,1.44,12.95,1.95c4.33,0.52,8.66,0.96,13,1.22l6.51,0.41l6.55,0.19
		c8.74,0.14,17.55-0.16,26.38-1.27c8.82-1.12,17.69-3.05,26.33-6.3c4.3-1.71,8.54-3.69,12.6-6.14c1.39-0.85,2.75-1.77,4.08-2.73
		c1.78-0.84,3.54-1.73,5.25-2.68c1.39-0.76,2.75-1.56,4.09-2.4c3.47,0.81,6.98,1.45,10.52,1.89l2.29,0.24l1.14,0.12l1.15,0.08
		l2.29,0.16c0.76,0.04,1.53,0.06,2.3,0.08c1.53,0.07,3.06,0.03,4.59,0.04c0.77,0,1.53-0.05,2.29-0.07c0.76-0.03,1.53-0.05,2.29-0.11
		c6.1-0.4,12.16-1.31,18.06-2.78c2.96-0.7,5.87-1.59,8.75-2.54c1.43-0.51,2.87-0.98,4.27-1.55c0.7-0.28,1.42-0.54,2.11-0.83
		l2.09-0.88c0.7-0.29,1.38-0.61,2.07-0.92c0.69-0.32,1.38-0.62,2.06-0.95c1.35-0.68,2.72-1.32,4.04-2.04
		c0.66-0.36,1.33-0.7,1.99-1.07l1.96-1.12l0.98-0.56l0.96-0.59l1.93-1.18l1.89-1.23l0.95-0.61l0.93-0.64l1.85-1.28l1.82-1.33
		l0.91-0.67c0.3-0.22,0.59-0.46,0.89-0.69l1.78-1.38c0.59-0.47,1.16-0.95,1.74-1.42c0.58-0.48,1.16-0.95,1.72-1.44
		c4.55-3.9,8.84-8.1,12.78-12.6c1.99-2.23,3.86-4.57,5.69-6.93l1.34-1.8l0.67-0.9l0.64-0.92l1.29-1.84l1.24-1.87
		c3.3-4.99,6.2-10.24,8.74-15.66c0.33-0.67,0.62-1.37,0.92-2.05c0.3-0.69,0.62-1.36,0.9-2.06c0.56-1.39,1.15-2.77,1.66-4.18
		c1.08-2.8,1.99-5.66,2.86-8.53l0.6-2.17l0.3-1.09l0.27-1.09l0.53-2.19l0.47-2.2l0.23-1.1c0.07-0.37,0.13-0.74,0.2-1.11l0.4-2.22
		c0.12-0.74,0.22-1.49,0.33-2.23c0.11-0.74,0.22-1.49,0.3-2.23C536.81,226.5,537.07,220.46,536.75,214.45z M360.7,79.07l-2.19-0.24
		c-5.67-0.58-11.22-1.12-16.69-1.94c-5.46-0.82-10.81-1.89-15.9-3.53c-4.2-1.35-8.22-3.1-11.83-5.37
		C333.62,66.06,349.28,69.78,360.7,79.07z M214.57,45.95c2.48-2.89,3.38-2.73,3.77-2.67c2.07,0.36,5.76,2.79,9.68,5.36
		c7.85,5.16,18.67,12.28,35.17,16.61c0,0,0,0,0.01,0c1.02,0.27,2.06,0.52,3.12,0.77c0.23,0.63,0.45,1.26,0.68,1.89c0,0,0,0,0,0
		c0.36,1,0.74,1.99,1.16,2.97c0.7,1.78,1.54,3.5,2.34,5.23c0.89,1.69,1.74,3.41,2.74,5.05c0.48,0.83,0.95,1.66,1.49,2.46
		c0.52,0.8,1.04,1.62,1.57,2.41l1.68,2.34l0.42,0.59l0.44,0.56c-4.63,0.57-9.24,1.27-13.83,2.1c-1.06,0.19-2.12,0.39-3.18,0.59
		c-1.06,0.2-2.12,0.42-3.17,0.63l-0.79,0.16l-0.81,0.18l-1.63,0.37c-0.54,0.13-1.08,0.28-1.62,0.41c-0.54,0.14-1.08,0.27-1.61,0.43
		c-2.05,0.58-4.07,1.24-6.08,1.97c-1.02-0.79-2.07-1.54-3.15-2.27c-3.19-2.16-6.61-3.98-10.14-5.51c-3.53-1.52-7.16-2.74-10.84-3.67
		c-3.68-0.92-7.4-1.54-11.12-1.95c-1.86-0.23-3.71-0.33-5.57-0.45l-2.78-0.1c-0.46-0.02-0.92-0.02-1.38-0.02l-1.38,0l-0.03,0
		C202.59,66.99,208,53.61,214.57,45.95z M413.37,317.53c-2.52,1.46-5.07,3.01-7.17,4.31c-0.21,0.15-0.42,0.31-0.64,0.45
		c-1.3,0.88-2.64,1.7-4.01,2.47c-0.17,0.11-0.26,0.17-0.26,0.17l0-0.02c-0.27,0.15-0.54,0.32-0.81,0.47
		c-2.89,1.58-5.9,2.92-8.97,4.05c-1.06,0.38-2.12,0.74-3.19,1.07c-5.17,1.62-10.47,2.68-15.76,3.18c-0.14,0.01-0.29,0.03-0.43,0.04
		c-6.25,0.58-12.48,0.45-18.51-0.35l-0.63-0.02c-1.56-0.1-3-0.55-4.31-1.25c-0.65-0.36-1.25-0.79-1.82-1.27
		c-0.56-0.48-1.05-1.04-1.5-1.62c-0.44-0.59-0.81-1.22-1.11-1.88c-0.3-0.66-0.52-1.35-0.68-2.06c-0.14-0.71-0.22-1.44-0.22-2.18
		c0.01-0.74,0.08-1.47,0.24-2.18c0.31-1.43,0.95-2.8,1.87-4.01c0.11-0.16,0.24-0.29,0.36-0.45c0.12-0.15,0.26-0.28,0.38-0.43
		c0.27-0.27,0.54-0.54,0.84-0.79c0.29-0.26,0.6-0.48,0.92-0.71c0.32-0.21,0.65-0.42,1-0.6c0.69-0.37,1.42-0.66,2.19-0.88l0.29-0.08
		l0.29-0.06c0.2-0.05,0.4-0.07,0.6-0.11c0.2-0.04,0.41-0.05,0.61-0.08l0.73-0.02l0.37-0.01l0.49-0.01c0.21-0.01,0.41-0.02,0.62-0.02
		c0.41,0,0.82,0.03,1.24,0.08c0.42,0.05,0.83,0.13,1.25,0.23c0.21,0.05,0.42,0.11,0.63,0.17c0.11,0.03,0.21,0.06,0.32,0.1
		c0.06,0.02,0.09,0.03,0.17,0.06l0.24,0.09c2.53,0.96,5.14,1.88,7.74,2.71l0.49,0.15l0.28,0.09c0.12,0.04,0.25,0.08,0.37,0.11
		c0.12,0.04,0.25,0.07,0.37,0.1l0.19,0.04l0.07,0.01l1.04,0.14c0.7,0.09,1.39,0.2,2.09,0.26c0.7,0.07,1.39,0.15,2.09,0.21l2.09,0.15
		c5.32,0.28,10.62,0.07,15.83-0.6c0.25-0.03,0.49-0.06,0.74-0.09c3.88-0.53,7.7-1.33,11.44-2.35c1.47-0.42,6.06-1.81,9.55-3.68
		C415.98,309.21,419.32,314.08,413.37,317.53z M520.2,246.44c-0.81,2.54-1.65,5.07-2.65,7.55c-0.47,1.25-1.01,2.47-1.53,3.7
		c-0.26,0.62-0.55,1.22-0.83,1.82c-0.29,0.6-0.54,1.22-0.85,1.81c-2.34,4.8-5,9.46-8.02,13.88l-1.13,1.66l-1.18,1.62l-0.59,0.81
		l-0.61,0.8l-1.22,1.59c-1.67,2.09-3.37,4.16-5.18,6.12c-3.58,3.97-7.47,7.67-11.57,11.08c-0.51,0.44-1.03,0.85-1.55,1.26
		c-0.52,0.41-1.04,0.83-1.57,1.24l-1.6,1.2c-0.27,0.2-0.53,0.4-0.8,0.6l-0.81,0.58l-1.63,1.15l-1.66,1.11l-0.83,0.55l-0.84,0.53
		l-1.69,1.06l-1.72,1.01l-0.86,0.51l-0.87,0.48l-1.74,0.96l-1.77,0.91c-1.17,0.62-2.38,1.16-3.57,1.74
		c-0.6,0.28-1.21,0.54-1.81,0.81c-0.61,0.27-1.21,0.54-1.82,0.78l-1.84,0.74c-0.61,0.25-1.24,0.46-1.85,0.69
		c-1.23,0.48-2.49,0.87-3.74,1.29c-2.51,0.78-5.04,1.52-7.6,2.08c-5.11,1.2-10.31,1.9-15.52,2.16c-0.65,0.05-1.3,0.05-1.95,0.07
		c-0.65,0.01-1.3,0.04-1.95,0.04c-1.3-0.03-2.6,0-3.9-0.09c-0.65-0.03-1.3-0.06-1.95-0.1l-1.94-0.16l-0.41-0.03
		c1.73-1.74,3.38-3.54,4.93-5.44c0.56-0.7,1.13-1.39,1.67-2.11c0.53-0.72,1.09-1.43,1.6-2.17l0.76-1.11l0.38-0.55l0.05-0.07
		l0.08-0.13c0.06-0.09,0.12-0.19,0.17-0.29c0.1-0.2,0.2-0.4,0.28-0.61c0.31-0.83,0.39-1.75,0.22-2.62
		c-0.16-0.88-0.59-1.71-1.18-2.36c-0.46-0.51-1.03-0.91-1.64-1.18c-0.62-0.27-1.3-0.41-1.97-0.41c-0.68,0-1.36,0.15-1.97,0.43
		l-0.9,0.4c-1.17,0.51-2.35,1-3.54,1.46c-1.02,0.39-2.05,0.75-3.08,1.1c-1.38,0.46-2.77,0.88-4.17,1.24l-1.84,0.45
		c-0.61,0.15-1.23,0.26-1.85,0.39c-0.62,0.13-1.24,0.24-1.86,0.34c-0.62,0.1-1.24,0.21-1.87,0.28c-0.62,0.08-1.25,0.17-1.87,0.22
		l-1.88,0.16c-0.29,0.02-0.59,0.03-0.88,0.05c-0.96,0.05-1.92,0.09-2.88,0.09c-2.5,0.03-5-0.08-7.47-0.35
		c-2.47-0.27-4.92-0.69-7.33-1.21l-1.8-0.42c-0.6-0.15-1.19-0.32-1.78-0.47c-0.6-0.15-1.18-0.34-1.77-0.51l-0.88-0.26l-0.05-0.02
		l0.07,0.01c0.05,0.01,0.09,0.01,0.14,0.03c0.05,0.01,0.09,0.02,0.14,0.04l0.07,0.02c0.02,0.01,0.02,0.01,0,0l-0.03-0.01l-0.43-0.21
		c-2.26-1.14-4.46-2.34-6.66-3.61l-0.21-0.12l-0.28-0.15c-0.19-0.1-0.39-0.2-0.58-0.3c-0.39-0.19-0.79-0.38-1.2-0.55
		c-0.81-0.34-1.65-0.65-2.51-0.9c-0.86-0.25-1.74-0.46-2.63-0.61c-0.44-0.08-0.9-0.14-1.34-0.19l-0.49-0.06l-0.62-0.06l-1.24-0.11
		c-0.45-0.01-0.9-0.03-1.36-0.02c-0.45,0.01-0.91,0.02-1.36,0.06l-0.68,0.05l-0.68,0.08c-0.91,0.11-1.81,0.28-2.7,0.5
		c-0.89,0.24-1.77,0.5-2.63,0.84c-3.46,1.31-6.6,3.46-9.11,6.22c-2.5,2.76-4.4,6.13-5.39,9.79c-0.5,1.82-0.79,3.71-0.84,5.59
		c-0.07,1.88,0.09,3.77,0.46,5.63c0.38,1.86,0.98,3.67,1.78,5.39c0.4,0.86,0.85,1.69,1.34,2.5c0.51,0.8,1.04,1.58,1.63,2.32
		c1.16,1.48,2.5,2.81,3.98,3.97c-5.57,0.52-11.2,0.75-16.86,0.78l-6.19-0.05l-6.21-0.27c-4.14-0.17-8.27-0.51-12.39-0.93
		c-4.12-0.41-8.21-0.96-12.28-1.61c-2.04-0.32-4.06-0.7-6.08-1.07l-3.02-0.62c-1.01-0.2-2-0.45-3.01-0.67
		c-4-0.93-7.96-1.99-11.87-3.21c-3.91-1.22-7.75-2.6-11.51-4.15c-7.53-3.09-14.74-6.87-21.4-11.43c-3.33-2.28-6.52-4.74-9.53-7.39
		c-1.88-1.66-3.69-3.4-5.43-5.2c4.87-1.22,9.7-2.57,14.49-4c2.39-0.72,3.8-3.21,3.15-5.63c-0.66-2.48-3.2-3.95-5.67-3.29l-0.02,0.01
		c-6.35,1.69-12.73,3.19-19.14,4.47c-1.24,0.25-2.48,0.49-3.72,0.72c-2.58,0.47-5.16,0.91-7.75,1.29c-5.1,0.77-10.2,1.36-15.3,1.73
		c-7.69,0.55-15.38,0.65-22.93-0.03c-0.94-0.09-1.89-0.16-2.83-0.26l-2.81-0.36c-0.94-0.1-1.86-0.27-2.79-0.42l-1.39-0.23
		l-0.69-0.11l-0.69-0.14l-2.75-0.57c-0.91-0.2-1.81-0.44-2.71-0.66c-0.45-0.12-0.91-0.21-1.35-0.34l-1.33-0.39
		c-0.89-0.27-1.78-0.5-2.65-0.82c-3.51-1.13-6.9-2.54-10.14-4.18c-3.24-1.64-6.32-3.53-9.19-5.67c-5.75-4.28-10.67-9.56-14.53-15.58
		c-1.93-3.01-3.61-6.2-5.05-9.5c-0.7-1.67-1.38-3.34-1.95-5.06c-0.31-0.85-0.57-1.72-0.85-2.58l-0.38-1.31
		c-0.13-0.44-0.25-0.87-0.36-1.31c-0.94-3.51-1.65-7.1-2.11-10.72c-0.23-1.81-0.4-3.62-0.51-5.42c-0.05-0.9-0.09-1.79-0.1-2.67
		c-0.01-0.44-0.01-0.88-0.01-1.3l0.01-0.62l0.01-0.29l0.01-0.13l0-0.06c0-0.02,0,0,0-0.01c0.16-1.86-0.44-3.8-1.82-5.26l-0.47-0.5
		l0,0c-3.67-3.6-6.53-7.85-8.44-12.61c-1.92-4.76-2.9-10-3.09-15.41c-0.19-5.42,0.38-10.99,1.51-16.51
		c0.57-2.76,1.28-5.51,2.12-8.21c0.42-1.35,0.87-2.69,1.35-4.01c0.24-0.66,0.49-1.31,0.74-1.95l0.38-0.94l0.19-0.45l0.15-0.35
		c0.84-1.92,0.93-4.2,0.06-6.29l-0.11-0.26v0c-0.68-2.31-1.18-5.09-1.45-7.98c-0.29-2.9-0.37-5.94-0.34-9.01
		c0.04-3.07,0.2-6.19,0.5-9.31c0.29-3.12,0.65-6.24,1.14-9.35c0.49-3.11,1.06-6.2,1.73-9.27c0.68-3.06,1.45-6.09,2.31-9.07
		c0.88-2.97,1.85-5.88,2.93-8.71c1.07-2.83,2.29-5.54,3.61-8.11c1.32-2.56,2.77-4.96,4.33-7.06l1.19-1.5l0.51-0.6
		c0.16-0.16,0.32-0.35,0.47-0.49c0.07-0.06,0.14-0.13,0.21-0.2l0.1-0.1l0.08-0.07c0.03-0.03,0.06-0.05,0.09-0.08
		c0.31,0.11,0.72,0.28,1.18,0.52c1.01,0.5,2.25,1.21,3.57,2.03c1.32,0.82,2.72,1.73,4.18,2.65c2.92,1.86,6.04,3.78,9.27,5.58
		c3.25,1.79,6.62,3.47,10.08,4.94c3.46,1.49,7.02,2.76,10.62,3.84c3.6,1.08,7.24,1.96,10.89,2.65c3.65,0.69,7.32,1.2,10.98,1.53
		c3.66,0.33,7.31,0.5,10.94,0.53c4.4,0.05,8.78-0.11,13.12-0.43c2.81-0.21,5.61-0.49,8.38-0.84l4.87-0.58
		c0.7-0.07,1.39-0.12,2.09-0.19c0.08-0.01,0.16-0.01,0.24-0.02c0.39-0.03,0.78-0.07,1.17-0.1l1.16-0.06l1.16-0.06
		c0.39-0.02,0.78-0.05,1.16-0.05l2.32-0.05c1.54,0.01,3.08,0.01,4.6,0.11c6.1,0.3,12.07,1.34,17.64,3.33c1.12,0.4,2.21,0.83,3.3,1.3
		c1.62,0.7,3.2,1.49,4.73,2.37c1.23,0.7,2.42,1.46,3.58,2.27c1.26,0.88,2.47,1.81,3.65,2.81c0.58,0.47,1.11,0.99,1.67,1.48
		c0.55,0.5,1.07,1.04,1.61,1.56c1.04,1.08,2.06,2.18,3.02,3.36c1.93,2.33,3.69,4.85,5.27,7.51c3.18,5.32,5.63,11.22,7.48,17.36
		c0.92,3.07,1.68,6.21,2.3,9.39c0.3,1.59,0.57,3.18,0.79,4.78c0.11,0.8,0.21,1.6,0.3,2.39c0.04,0.4,0.08,0.79,0.12,1.18l0.09,1.1
		l0.02,0.27c0.17,2.09,1.88,3.78,4.03,3.88c2.33,0.1,4.31-1.71,4.41-4.04l0.03-0.75l0.02-0.69c0.01-0.46,0.02-0.91,0.02-1.36
		c0.01-0.9-0.01-1.8-0.03-2.69c-0.05-1.79-0.15-3.57-0.31-5.35c-0.3-3.55-0.8-7.1-1.5-10.62c-0.34-1.76-0.74-3.52-1.2-5.27
		c-0.45-1.75-0.97-3.49-1.52-5.22c-1.12-3.46-2.48-6.87-4.11-10.2c-0.8-1.67-1.69-3.3-2.62-4.92l-0.73-1.2l-0.36-0.6l-0.38-0.59
		l-0.77-1.18c-0.26-0.39-0.54-0.77-0.81-1.16c-1.07-1.55-2.25-3.04-3.45-4.5c-0.63-0.71-1.24-1.44-1.89-2.14
		c-0.26-0.27-0.51-0.54-0.77-0.81c0.44-0.14,0.87-0.27,1.31-0.4c0.48-0.15,0.97-0.27,1.46-0.4c0.49-0.13,0.97-0.26,1.46-0.39
		l1.48-0.34l0.74-0.17l0.77-0.16c1.02-0.22,2.04-0.43,3.07-0.64c1.02-0.21,2.05-0.41,3.08-0.6c6.19-1.16,12.43-2.09,18.69-2.77
		l0.35,0.36c0.17,0.17,0.33,0.35,0.51,0.52l0.53,0.5l1.06,0.99l1.06,0.99c0.36,0.32,0.74,0.63,1.1,0.94l1.11,0.93
		c0.37,0.31,0.73,0.64,1.12,0.92l2.32,1.75c0.38,0.3,0.78,0.57,1.19,0.84l1.2,0.82l1.21,0.81c0.41,0.26,0.83,0.51,1.25,0.76
		l1.26,0.75l0.63,0.38l0.31,0.19l0.32,0.17l2.53,1.32l1.27,0.66l0.63,0.33c0.21,0.11,0.43,0.2,0.64,0.3
		c6.8,3.31,13.85,5.98,20.95,8.25c7.11,2.28,14.27,4.16,21.4,5.91c7.13,1.75,14.23,3.39,21.23,5.18c1.75,0.44,3.49,0.91,5.23,1.37
		c1.75,0.47,3.53,0.99,5.29,1.47c0.88,0.24,1.76,0.45,2.64,0.68c0.14,0.04,0.28,0.07,0.41,0.1c0.74,0.19,1.49,0.37,2.19,0.58
		l2.54,0.72c0.85,0.24,1.68,0.53,2.51,0.79l1.25,0.4l0.63,0.2l0.21,0.07l0.41,0.15l2.48,0.88c0.83,0.28,1.63,0.63,2.45,0.94
		l1.22,0.48c0.41,0.16,0.82,0.32,1.21,0.5c1.18,0.52,2.37,1.02,3.54,1.56c1.06,1.83,2.06,3.7,3.02,5.59l1.35,2.77
		c0.43,0.93,0.82,1.88,1.24,2.82l0.61,1.41c0.21,0.47,0.37,0.96,0.56,1.44l1.11,2.88c2.81,7.74,4.8,15.81,6.17,24
		c1.21,7.23,1.92,14.56,2.25,21.93c-0.53-0.33-1.08-0.5-1.64-0.5c-4.5,0-8.16,11.1-8.18,24.82c-2-1.72-3.94-3.58-5.82-5.54
		c-2.48-2.56-4.85-5.28-7.27-8.04l-0.2-0.23c-0.22-0.25-0.54-0.39-0.9-0.37c-0.61,0.04-1.06,0.57-1.02,1.17l0,0.07
		c0.01,0.19,0.09,0.38,0.22,0.54l-0.06,0.02c1.43,3.45,3.15,6.78,5.13,10c1.98,3.22,4.25,6.31,6.9,9.18c0.68,0.7,1.33,1.43,2.06,2.1
		l1.08,1.02c0.19,0.17,0.39,0.34,0.58,0.5c0.19,0.16,0.37,0.31,0.56,0.47c1.52,1.3,3.2,2.47,4.98,3.54
		c0.69,0.41,1.41,0.79,2.14,1.14c1.17,0.57,2.39,1.07,3.65,1.5c0.65,0.21,1.32,0.39,2,0.56c0.42,0.1,0.84,0.19,1.26,0.27
		c1.08,0.2,2.17,0.34,3.29,0.4c2.27,0.13,4.6-0.07,6.84-0.65c2.25-0.56,4.39-1.47,6.35-2.62c0.49-0.29,0.98-0.57,1.44-0.9l0.69-0.48
		c0.23-0.16,0.46-0.32,0.67-0.5c0.43-0.35,0.87-0.7,1.29-1.05l1.21-1.12c1.56-1.54,2.94-3.21,4.16-4.95l0.88-1.33
		c0.29-0.45,0.54-0.9,0.81-1.36c0.13-0.23,0.27-0.45,0.39-0.68l0.36-0.69c0.23-0.46,0.49-0.92,0.7-1.39
		c0.9-1.87,1.63-3.79,2.28-5.73l0.44-1.46l0.22-0.73l0.19-0.74l0.37-1.47l0.31-1.48l0.15-0.74l0.13-0.74l0.25-1.49l0.19-1.49
		c0.06-0.5,0.13-0.99,0.17-1.49c0.38-3.98,0.41-7.96,0.08-11.9c-0.32-3.94-0.98-7.84-1.93-11.66c-1.9-7.63-5-14.93-9.06-21.6
		c-0.51-0.84-1.05-1.65-1.57-2.47c-0.53-0.82-1.1-1.61-1.65-2.41c-1.14-1.59-2.33-3.18-3.62-4.65c-2.5-3.04-5.26-5.75-8.11-8.4
		l-2.21-1.9c-0.37-0.31-0.73-0.64-1.11-0.94l-1.15-0.89l-2.29-1.78l-2.37-1.66l-1.19-0.83l-1.22-0.78l-2.44-1.55
		c-0.83-0.49-1.66-0.96-2.49-1.44l-1.25-0.72c-0.42-0.24-0.85-0.45-1.27-0.67l-2.55-1.33c-0.86-0.43-1.73-0.82-2.59-1.23
		c-1.12-0.55-2.27-1.04-3.41-1.53c-0.61-0.26-1.22-0.52-1.83-0.78c-0.44-0.19-0.88-0.36-1.33-0.53l-1.33-0.51
		c-0.89-0.33-1.77-0.7-2.67-0.99l-1.72-0.59l-0.97-0.33l-0.67-0.23l-0.68-0.21l-1.36-0.42c-0.2-0.06-0.39-0.12-0.58-0.18
		c-0.71-0.22-1.42-0.45-2.13-0.64l-2.73-0.75c-0.92-0.26-1.8-0.47-2.7-0.69c-0.89-0.22-1.79-0.43-2.67-0.66
		c-0.38-0.1-0.76-0.2-1.15-0.31c-1.37-0.37-2.74-0.73-4.13-1.09c-1.79-0.44-3.59-0.91-5.38-1.33c-7.17-1.72-14.32-3.27-21.38-4.91
		c-7.06-1.64-14.05-3.36-20.88-5.42c-6.83-2.06-13.51-4.47-19.89-7.44c-0.2-0.09-0.4-0.18-0.6-0.27l-0.59-0.29l-1.17-0.59
		l-2.35-1.17l-0.29-0.15l-0.28-0.16l-0.55-0.32l-1.1-0.63c-0.37-0.21-0.74-0.42-1.1-0.64l-1.08-0.7l-1.08-0.7
		c-0.36-0.23-0.72-0.46-1.06-0.72l-2.08-1.51c-0.17-0.11-0.32-0.24-0.48-0.36c-0.18-0.14-0.35-0.29-0.53-0.43l-1-0.81
		c-0.33-0.27-0.67-0.53-1-0.81l-0.96-0.86l-0.96-0.86l-0.48-0.43c-0.16-0.15-0.31-0.3-0.46-0.45l-1.83-1.82
		c-0.27-0.28-0.54-0.57-0.8-0.87c-0.31-0.35-0.63-0.69-0.94-1.04c-0.29-0.32-0.59-0.63-0.86-0.96l-0.82-1l-0.83-1l-0.41-0.5
		l-0.39-0.52l-1.56-2.07c-0.5-0.71-0.97-1.43-1.46-2.14c-0.5-0.71-0.94-1.45-1.4-2.19c-0.94-1.46-1.74-3-2.59-4.51
		c-0.76-1.56-1.58-3.09-2.25-4.7c-0.03-0.06-0.06-0.13-0.09-0.19c-0.23-0.49-0.44-0.99-0.64-1.49c0,0,0-0.01,0-0.01
		c-0.43-1.04-0.83-2.1-1.24-3.14l-0.82-2.39l-0.04-0.11l-0.03-0.08c0.34-0.23,0.74-0.47,1.19-0.69c0.91-0.45,1.97-0.85,3.06-1.21
		c0,0,0.01,0,0.01,0c0.11-0.04,0.22-0.07,0.33-0.11c0.03-0.01,0.06-0.02,0.08-0.02c2.44-0.75,5.06-1.32,7.71-1.79
		c1.34-0.24,2.7-0.45,4.07-0.64l2.06-0.27l1.04-0.13l0.26-0.03l0.13-0.02c0.04,0,0.01,0,0.02,0c0,0,0,0,0.01,0c0.01,0,0.02,0,0.03,0
		c0.1,0.01,0.33,0.05,0.51,0.15c0.19,0.09,0.33,0.22,0.41,0.31c0.03,0.05,0.07,0.09,0.07,0.12c0,0,0.01,0.01,0.01,0.01
		c0-0.01,0.04,0.07,0.05,0.1l0.13,0.26l0.26,0.52l0.52,1.03l0.26,0.51l0.29,0.5c1.5,2.7,3.29,5.28,5.35,7.62
		c0.67,0.76,1.37,1.5,2.09,2.22c1.49,1.48,3.09,2.86,4.76,4.11c4.97,3.73,10.57,6.37,16.23,8.28c5.68,1.91,11.46,3.15,17.19,4.09
		c5.73,0.94,11.45,1.58,17.04,2.23l12.5,1.55l4.33,0.54c4.92,0.63,9.83,1.29,14.71,2.02c0.67,0.1,1.34,0.2,2.01,0.3
		c5.54,0.86,11.04,1.82,16.49,2.95c1.37,0.27,2.72,0.57,4.08,0.88c1.37,0.29,2.68,0.62,4.01,0.93c0.67,0.14,1.32,0.35,1.97,0.54
		l1.96,0.57l1.96,0.57c0.65,0.2,1.31,0.42,1.96,0.64c1.3,0.43,2.61,0.85,3.92,1.29l3.87,1.42c1.3,0.45,2.56,1,3.83,1.51l1.91,0.78
		c0.32,0.13,0.64,0.25,0.95,0.39l0.94,0.42l3.76,1.69c1.24,0.58,2.47,1.21,3.7,1.81l1.85,0.91l1.82,0.97l1.82,0.97
		c0.6,0.33,1.22,0.63,1.81,0.99l3.56,2.07l0.89,0.52l0.87,0.55l1.74,1.1c2.35,1.42,4.58,3.02,6.85,4.55l3.32,2.43
		c0.55,0.41,1.11,0.8,1.65,1.23l1.61,1.28l1.61,1.27l0.81,0.64c0.27,0.21,0.52,0.44,0.79,0.66l3.12,2.66
		c0.53,0.44,1.02,0.91,1.53,1.37l1.51,1.39l1.51,1.39c0.5,0.47,0.97,0.96,1.46,1.44c0.97,0.97,1.95,1.92,2.91,2.89l2.8,2.99
		c3.69,4.03,7.18,8.26,10.39,12.64c6.43,8.77,11.69,18.31,15.46,28.36c1.9,5.02,3.36,10.2,4.43,15.44l0.21,0.98
		c0.07,0.33,0.14,0.65,0.19,0.99l0.33,1.98l0.33,1.98c0.1,0.66,0.17,1.32,0.25,1.98l0.24,1.98l0.12,0.99l0.07,0.98l0.14,1.97
		l0.08,1.99C524.85,225.59,523.31,236.25,520.2,246.44z M428.15,207.79c-0.26-8.63-1.01-17.26-2.43-25.83
		c-0.38-2.14-0.71-4.28-1.2-6.41l-0.67-3.19l-0.79-3.17c-0.5-2.12-1.14-4.21-1.74-6.3c-0.29-1.05-0.66-2.08-1-3.12
		c-0.35-1.03-0.68-2.08-1.06-3.1l-1.17-3.07c-0.2-0.51-0.38-1.03-0.6-1.53l-0.65-1.51c-0.3-0.69-0.59-1.38-0.89-2.07l1.11,0.72
		l1.08,0.7l1.05,0.75l2.1,1.5l2.02,1.59l1.01,0.79c0.33,0.27,0.65,0.56,0.97,0.84l1.93,1.68c0.63,0.58,1.23,1.18,1.85,1.77
		l0.92,0.89c0.31,0.29,0.59,0.62,0.88,0.93l1.74,1.87c0.3,0.31,0.56,0.64,0.83,0.96l0.81,0.97c1.11,1.28,2.1,2.62,3.08,4
		c0.47,0.71,0.97,1.4,1.43,2.11c0.45,0.72,0.91,1.43,1.35,2.16c3.49,5.82,6.11,12.13,7.69,18.68c0.79,3.27,1.32,6.6,1.58,9.93
		c0.26,3.33,0.21,6.68-0.12,9.96c-0.31,3.29-0.99,6.51-1.93,9.59c-0.27,0.76-0.49,1.53-0.8,2.27c-0.15,0.37-0.27,0.75-0.43,1.11
		l-0.47,1.09c-0.66,1.42-1.39,2.81-2.21,4.09c-0.83,1.27-1.74,2.46-2.73,3.53c-0.99,1.07-2.08,1.98-3.22,2.75
		c-2.29,1.53-4.85,2.42-7.61,2.46c-0.84,0.02-1.71-0.03-2.58-0.15c0.04-0.4,0.07-0.8,0.1-1.21l0.22-3.22
		C428.17,225.03,428.4,216.42,428.15,207.79z"/>
	<path class="st0" d="M401.29,324.93c0,0,0.09-0.06,0.26-0.17c-0.09,0.05-0.17,0.1-0.26,0.15L401.29,324.93z"/>
</g>
</svg>
